<svg version="1.1" xmlns="http://www.w3.org/2000/svg" xmlns:xlink="http://www.w3.org/1999/xlink" width="70" height="70" viewBox="0,0,70,70"><!-- Generated with https://ivantodorovich.github.io/odoo-icon --><defs><linearGradient x1="70" y1="0" x2="0" y2="70" gradientUnits="userSpaceOnUse" id="color-1"><stop offset="0" stop-color="#b8c8f3"/><stop offset="1" stop-color="#8595c0"/></linearGradient></defs><g fill="none" fill-rule="nonzero" stroke="none" stroke-width="1" stroke-linecap="butt" stroke-linejoin="miter" stroke-miterlimit="10" stroke-dasharray="" stroke-dashoffset="0" font-family="none" font-weight="none" font-size="none" text-anchor="none" style="mix-blend-mode: normal"><path d="M3.5,70c-1.933,0 -3.5,-1.567 -3.5,-3.5v-63c0,-1.933 1.567,-3.5 3.5,-3.5h63c1.933,0 3.5,1.567 3.5,3.5v63c0,1.933 -1.567,3.5 -3.5,3.5z" id="box" fill="url(#color-1)"/><path d="M65,1h-61c-1.95033,0 -3.2667,0.63396 -3.9491,1.90189c0.28378,-1.64806 1.72001,-2.90189 3.4491,-2.90189h63c1.72965,0 3.16627,1.25466 3.44938,2.90352c-0.69803,-1.26902 -2.34782,-1.90352 -4.94938,-1.90352z" id="topBoxShadow" fill="#ffffff" opacity="0.383"/><path d="M4,69h61c2.66667,0 4.33333,-1 5,-3v0.5c0,1.933 -1.567,3.5 -3.5,3.5h-63c-1.933,0 -3.5,-1.567 -3.5,-3.5c0,-0.1611 0,-0.32777 0,-0.5c0.66667,2 2,3 4,3z" id="bottomBoxShadow" fill="#000000" opacity="0.383"/><path d="M52.91667,44.84275c2.1848,-4.99114 2.1848,-10.7181 0,-15.68606l-6.30213,2.85216c1.37999,3.17397 1.37999,6.78513 0.02318,9.98174l6.27895,2.85216M42.86594,19.08333c-5.00826,-2.1848 -10.70043,-2.1848 -15.70869,0l2.85216,6.27895c3.19716,-1.35681 6.80776,-1.35681 10.00492,0.02318l2.85216,-6.30213M17.08333,29.13406c-2.1848,5.01654 -2.1848,10.71534 0,15.73187l6.30213,-2.87479c-1.37999,-3.17397 -1.37999,-6.80776 0,-10.00492l-6.30213,-2.85216M27.15725,54.91667c5.00936,2.18921 10.70595,2.18038 15.70869,-0.02318l-2.85216,-6.27895c-3.18336,1.37557 -6.79231,1.38385 -9.98174,0.02318l-2.87479,6.27895M35,14c12.70252,0 23,10.29748 23,23c0,12.70252 -10.29748,23 -23,23c-12.70252,0 -23,-10.29748 -23,-23c0,-12.70252 10.29748,-23 23,-23M35,27.79989c-5.08112,0 -9.20011,4.11899 -9.20011,9.20011c0,5.08112 4.11899,9.20011 9.20011,9.20011c5.08112,0 9.20011,-4.11899 9.20011,-9.20011c0,-5.08112 -4.11899,-9.20011 -9.20011,-9.20011z" id="shadow" fill="#000000" opacity="0.3"/><path d="M58,35c0,6.35126 -2.57437,12.10126 -6.73655,16.26345l-18.73655,18.73655h-29.02689c-1.933,0 -3.5,-1.567 -3.5,-3.5l0,-29.02689l18.73655,-18.73655c4.16218,-4.16218 9.91218,-6.73655 16.26345,-6.73655c12.70252,0 23,10.29748 23,23z" id="flatShadow" fill="#000000" opacity="0.324"/><path d="M52.91667,42.84275c2.1848,-4.99114 2.1848,-10.7181 0,-15.68606l-6.30213,2.85216c1.37999,3.17397 1.37999,6.78513 0.02318,9.98174l6.27895,2.85216M42.86594,17.08333c-5.00826,-2.1848 -10.70043,-2.1848 -15.70869,0l2.85216,6.27895c3.19716,-1.35681 6.80776,-1.35681 10.00492,0.02318l2.85216,-6.30213M17.08333,27.13406c-2.1848,5.01654 -2.1848,10.71534 0,15.73187l6.30213,-2.87479c-1.37999,-3.17397 -1.37999,-6.80776 0,-10.00492l-6.30213,-2.85216M27.15725,52.91667c5.00936,2.18921 10.70595,2.18038 15.70869,-0.02318l-2.85216,-6.27895c-3.18336,1.37557 -6.79231,1.38385 -9.98174,0.02318l-2.87479,6.27895M35,12c12.70252,0 23,10.29748 23,23c0,12.70252 -10.29748,23 -23,23c-12.70252,0 -23,-10.29748 -23,-23c0,-12.70252 10.29748,-23 23,-23M35,25.79989c-5.08112,0 -9.20011,4.11899 -9.20011,9.20011c0,5.08112 4.11899,9.20011 9.20011,9.20011c5.08112,0 9.20011,-4.11899 9.20011,-9.20011c0,-5.08112 -4.11899,-9.20011 -9.20011,-9.20011z" id="icon" fill="#ffffff"/></g></svg>